<mxfile host="Electron" agent="Mozilla/5.0 (Windows NT 10.0; Win64; x64) AppleWebKit/537.36 (KHTML, like Gecko) draw.io/26.2.15 Chrome/134.0.6998.205 Electron/35.2.1 Safari/537.36" version="26.2.15">
  <diagram id="6a731a19-8d31-9384-78a2-239565b7b9f0" name="Page-1">
    <mxGraphModel dx="624" dy="1690" grid="1" gridSize="10" guides="1" tooltips="1" connect="1" arrows="1" fold="1" page="1" pageScale="1" pageWidth="827" pageHeight="1169" background="none" math="0" shadow="0">
      <root>
        <mxCell id="0" />
        <mxCell id="1" parent="0" />
        <mxCell id="jNTNx2NdGYP_HpdYI0lf-2258" value="" style="rounded=0;whiteSpace=wrap;html=1;" vertex="1" parent="1">
          <mxGeometry x="210" y="-260" width="1000" height="1230" as="geometry" />
        </mxCell>
        <mxCell id="jNTNx2NdGYP_HpdYI0lf-2257" value="Responsable&amp;nbsp;&lt;div&gt;des&amp;nbsp;&lt;span style=&quot;background-color: transparent; color: light-dark(rgb(0, 0, 0), rgb(255, 255, 255));&quot;&gt;stocks&lt;/span&gt;&lt;/div&gt;" style="shape=umlActor;verticalLabelPosition=bottom;verticalAlign=top;html=1;outlineConnect=0;" vertex="1" parent="1">
          <mxGeometry x="50" y="-190" width="30" height="60" as="geometry" />
        </mxCell>
        <mxCell id="jNTNx2NdGYP_HpdYI0lf-2261" value="Magasinier" style="shape=umlActor;verticalLabelPosition=bottom;verticalAlign=top;html=1;outlineConnect=0;" vertex="1" parent="1">
          <mxGeometry x="70" y="740" width="30" height="60" as="geometry" />
        </mxCell>
        <mxCell id="jNTNx2NdGYP_HpdYI0lf-2263" value="Responsable&amp;nbsp;&lt;div&gt;de la&lt;/div&gt;&lt;div&gt;logistique&lt;/div&gt;" style="shape=umlActor;verticalLabelPosition=bottom;verticalAlign=top;html=1;outlineConnect=0;" vertex="1" parent="1">
          <mxGeometry x="70" y="50" width="30" height="60" as="geometry" />
        </mxCell>
        <mxCell id="jNTNx2NdGYP_HpdYI0lf-2264" value="Agents&amp;nbsp;&lt;div&gt;de&amp;nbsp;&lt;span style=&quot;background-color: transparent; color: light-dark(rgb(0, 0, 0), rgb(255, 255, 255));&quot;&gt;logistiques&lt;/span&gt;&lt;/div&gt;" style="shape=umlActor;verticalLabelPosition=bottom;verticalAlign=top;html=1;outlineConnect=0;" vertex="1" parent="1">
          <mxGeometry x="40" y="407.5" width="30" height="60" as="geometry" />
        </mxCell>
        <mxCell id="jNTNx2NdGYP_HpdYI0lf-2266" value="Responsable&amp;nbsp;&lt;div&gt;informatique&lt;/div&gt;" style="shape=umlActor;verticalLabelPosition=bottom;verticalAlign=top;html=1;outlineConnect=0;" vertex="1" parent="1">
          <mxGeometry x="1360" y="-70" width="30" height="60" as="geometry" />
        </mxCell>
        <mxCell id="jNTNx2NdGYP_HpdYI0lf-2267" value="Techniciens&amp;nbsp;&lt;div&gt;informatiques&lt;/div&gt;" style="shape=umlActor;verticalLabelPosition=bottom;verticalAlign=top;html=1;outlineConnect=0;" vertex="1" parent="1">
          <mxGeometry x="1360" y="270" width="30" height="60" as="geometry" />
        </mxCell>
        <mxCell id="jNTNx2NdGYP_HpdYI0lf-2272" value="Suit les entrées et les sorties" style="ellipse;whiteSpace=wrap;html=1;" vertex="1" parent="1">
          <mxGeometry x="690" y="-10" width="120" height="80" as="geometry" />
        </mxCell>
        <mxCell id="jNTNx2NdGYP_HpdYI0lf-2273" value="Supervise et analyse la gestion numérique des niveaux de stock" style="ellipse;whiteSpace=wrap;html=1;" vertex="1" parent="1">
          <mxGeometry x="370" y="-250" width="140" height="90" as="geometry" />
        </mxCell>
        <mxCell id="jNTNx2NdGYP_HpdYI0lf-2278" value="Consulte le stocks&amp;nbsp;" style="ellipse;whiteSpace=wrap;html=1;" vertex="1" parent="1">
          <mxGeometry x="330" y="750" width="150" height="70" as="geometry" />
        </mxCell>
        <mxCell id="jNTNx2NdGYP_HpdYI0lf-2279" value="Enregistre les mouvements de stocks" style="ellipse;whiteSpace=wrap;html=1;" vertex="1" parent="1">
          <mxGeometry x="540" y="610" width="120" height="80" as="geometry" />
        </mxCell>
        <mxCell id="jNTNx2NdGYP_HpdYI0lf-2280" value="" style="endArrow=none;html=1;rounded=0;" edge="1" parent="1" source="jNTNx2NdGYP_HpdYI0lf-2261" target="jNTNx2NdGYP_HpdYI0lf-2279">
          <mxGeometry width="50" height="50" relative="1" as="geometry">
            <mxPoint x="290" y="50" as="sourcePoint" />
            <mxPoint x="340" as="targetPoint" />
          </mxGeometry>
        </mxCell>
        <mxCell id="jNTNx2NdGYP_HpdYI0lf-2281" value="" style="endArrow=none;html=1;rounded=0;" edge="1" parent="1" source="jNTNx2NdGYP_HpdYI0lf-2261" target="jNTNx2NdGYP_HpdYI0lf-2278">
          <mxGeometry width="50" height="50" relative="1" as="geometry">
            <mxPoint x="290" y="50" as="sourcePoint" />
            <mxPoint x="340" as="targetPoint" />
          </mxGeometry>
        </mxCell>
        <mxCell id="jNTNx2NdGYP_HpdYI0lf-2284" value="Planifie les flux entrants et sortants" style="ellipse;whiteSpace=wrap;html=1;" vertex="1" parent="1">
          <mxGeometry x="630" y="200" width="120" height="80" as="geometry" />
        </mxCell>
        <mxCell id="jNTNx2NdGYP_HpdYI0lf-2287" value="" style="endArrow=none;html=1;rounded=0;" edge="1" parent="1" source="jNTNx2NdGYP_HpdYI0lf-2263" target="jNTNx2NdGYP_HpdYI0lf-2284">
          <mxGeometry width="50" height="50" relative="1" as="geometry">
            <mxPoint x="280" y="380" as="sourcePoint" />
            <mxPoint x="330" y="330" as="targetPoint" />
          </mxGeometry>
        </mxCell>
        <mxCell id="jNTNx2NdGYP_HpdYI0lf-2288" value="Réceptionnent les livraisons" style="ellipse;whiteSpace=wrap;html=1;" vertex="1" parent="1">
          <mxGeometry x="480" y="317.5" width="130" height="75" as="geometry" />
        </mxCell>
        <mxCell id="jNTNx2NdGYP_HpdYI0lf-2289" value="Saisissent les données des produits sortants et entrants" style="ellipse;whiteSpace=wrap;html=1;" vertex="1" parent="1">
          <mxGeometry x="294" y="520" width="120" height="80" as="geometry" />
        </mxCell>
        <mxCell id="jNTNx2NdGYP_HpdYI0lf-2291" value="" style="endArrow=none;html=1;rounded=0;" edge="1" parent="1" source="jNTNx2NdGYP_HpdYI0lf-2264" target="jNTNx2NdGYP_HpdYI0lf-2288">
          <mxGeometry width="50" height="50" relative="1" as="geometry">
            <mxPoint x="120" y="520" as="sourcePoint" />
            <mxPoint x="340" y="520" as="targetPoint" />
          </mxGeometry>
        </mxCell>
        <mxCell id="jNTNx2NdGYP_HpdYI0lf-2295" value="&amp;nbsp;Gère le système informatique" style="ellipse;whiteSpace=wrap;html=1;" vertex="1" parent="1">
          <mxGeometry x="980" y="-210" width="120" height="80" as="geometry" />
        </mxCell>
        <mxCell id="jNTNx2NdGYP_HpdYI0lf-2296" value="" style="endArrow=none;html=1;rounded=0;" edge="1" parent="1" source="jNTNx2NdGYP_HpdYI0lf-2295" target="jNTNx2NdGYP_HpdYI0lf-2266">
          <mxGeometry width="50" height="50" relative="1" as="geometry">
            <mxPoint x="1130" y="130" as="sourcePoint" />
            <mxPoint x="1180" y="80" as="targetPoint" />
          </mxGeometry>
        </mxCell>
        <mxCell id="jNTNx2NdGYP_HpdYI0lf-2308" value="&lt;font style=&quot;font-size: 24px;&quot;&gt;&lt;b style=&quot;&quot;&gt;SGE&lt;/b&gt;&lt;/font&gt;" style="text;html=1;align=center;verticalAlign=middle;whiteSpace=wrap;rounded=0;" vertex="1" parent="1">
          <mxGeometry x="570" y="-380" width="140" height="50" as="geometry" />
        </mxCell>
        <mxCell id="tOADqwtDoGaPDvLUArFR-1" value="Vérifie les mouvements enregistrés et consulte les emplacements" style="ellipse;whiteSpace=wrap;html=1;" vertex="1" parent="1">
          <mxGeometry x="200" y="-60" width="160" height="70" as="geometry" />
        </mxCell>
        <mxCell id="tOADqwtDoGaPDvLUArFR-3" value="" style="endArrow=none;html=1;rounded=0;" edge="1" parent="1" source="jNTNx2NdGYP_HpdYI0lf-2257" target="jNTNx2NdGYP_HpdYI0lf-2273">
          <mxGeometry width="50" height="50" relative="1" as="geometry">
            <mxPoint x="96" y="-93" as="sourcePoint" />
            <mxPoint x="310" y="-100" as="targetPoint" />
          </mxGeometry>
        </mxCell>
        <mxCell id="tOADqwtDoGaPDvLUArFR-4" value="Assure la sécurité et la maintenance logicielle" style="ellipse;whiteSpace=wrap;html=1;" vertex="1" parent="1">
          <mxGeometry x="960" y="-90" width="170" height="80" as="geometry" />
        </mxCell>
        <mxCell id="tOADqwtDoGaPDvLUArFR-6" value="" style="endArrow=none;html=1;rounded=0;" edge="1" parent="1" source="tOADqwtDoGaPDvLUArFR-4" target="jNTNx2NdGYP_HpdYI0lf-2266">
          <mxGeometry width="50" height="50" relative="1" as="geometry">
            <mxPoint x="870" y="-46" as="sourcePoint" />
            <mxPoint x="1137" y="50" as="targetPoint" />
          </mxGeometry>
        </mxCell>
        <mxCell id="tOADqwtDoGaPDvLUArFR-8" value="Installent et maintiennent les postes de travail" style="ellipse;whiteSpace=wrap;html=1;" vertex="1" parent="1">
          <mxGeometry x="945" y="260" width="170" height="75" as="geometry" />
        </mxCell>
        <mxCell id="tOADqwtDoGaPDvLUArFR-9" value="" style="endArrow=none;html=1;rounded=0;" edge="1" parent="1" source="tOADqwtDoGaPDvLUArFR-8" target="jNTNx2NdGYP_HpdYI0lf-2267">
          <mxGeometry width="50" height="50" relative="1" as="geometry">
            <mxPoint x="823" y="226" as="sourcePoint" />
            <mxPoint x="1100" y="382" as="targetPoint" />
          </mxGeometry>
        </mxCell>
        <mxCell id="tOADqwtDoGaPDvLUArFR-11" value="&amp;lt;include&amp;gt;" style="endArrow=open;endSize=12;dashed=1;html=1;rounded=0;" edge="1" parent="1" source="jNTNx2NdGYP_HpdYI0lf-2273" target="tOADqwtDoGaPDvLUArFR-35">
          <mxGeometry x="0.0159" width="160" relative="1" as="geometry">
            <mxPoint x="420" y="-97" as="sourcePoint" />
            <mxPoint x="614.8746499294639" y="-136.57078915803572" as="targetPoint" />
            <mxPoint as="offset" />
          </mxGeometry>
        </mxCell>
        <mxCell id="tOADqwtDoGaPDvLUArFR-12" value="&amp;lt;include&amp;gt;" style="endArrow=open;endSize=12;dashed=1;html=1;rounded=0;" edge="1" parent="1" source="jNTNx2NdGYP_HpdYI0lf-2278" target="jNTNx2NdGYP_HpdYI0lf-2279">
          <mxGeometry x="0.0159" width="160" relative="1" as="geometry">
            <mxPoint x="500" y="470" as="sourcePoint" />
            <mxPoint x="500" y="530" as="targetPoint" />
            <mxPoint as="offset" />
          </mxGeometry>
        </mxCell>
        <mxCell id="tOADqwtDoGaPDvLUArFR-13" value="" style="endArrow=none;html=1;rounded=0;" edge="1" parent="1" source="jNTNx2NdGYP_HpdYI0lf-2257" target="tOADqwtDoGaPDvLUArFR-1">
          <mxGeometry width="50" height="50" relative="1" as="geometry">
            <mxPoint x="90" y="-145" as="sourcePoint" />
            <mxPoint x="311" y="-75" as="targetPoint" />
          </mxGeometry>
        </mxCell>
        <mxCell id="tOADqwtDoGaPDvLUArFR-14" value="" style="endArrow=none;html=1;rounded=0;" edge="1" parent="1" source="jNTNx2NdGYP_HpdYI0lf-2257" target="jNTNx2NdGYP_HpdYI0lf-2272">
          <mxGeometry width="50" height="50" relative="1" as="geometry">
            <mxPoint x="100" y="538" as="sourcePoint" />
            <mxPoint x="307" y="504" as="targetPoint" />
          </mxGeometry>
        </mxCell>
        <mxCell id="tOADqwtDoGaPDvLUArFR-15" value="Alerte en cas de rupture de stock" style="ellipse;whiteSpace=wrap;html=1;" vertex="1" parent="1">
          <mxGeometry x="320" y="890" width="140" height="70" as="geometry" />
        </mxCell>
        <mxCell id="tOADqwtDoGaPDvLUArFR-16" value="" style="endArrow=none;html=1;rounded=0;" edge="1" parent="1" source="jNTNx2NdGYP_HpdYI0lf-2261" target="tOADqwtDoGaPDvLUArFR-15">
          <mxGeometry width="50" height="50" relative="1" as="geometry">
            <mxPoint x="100" y="541" as="sourcePoint" />
            <mxPoint x="530" y="558" as="targetPoint" />
          </mxGeometry>
        </mxCell>
        <mxCell id="tOADqwtDoGaPDvLUArFR-17" value="Coordonne avec le Responsable des stocks" style="ellipse;whiteSpace=wrap;html=1;" vertex="1" parent="1">
          <mxGeometry x="414" y="60" width="140" height="70" as="geometry" />
        </mxCell>
        <mxCell id="tOADqwtDoGaPDvLUArFR-20" value="" style="endArrow=none;html=1;rounded=0;" edge="1" parent="1" source="jNTNx2NdGYP_HpdYI0lf-2263" target="tOADqwtDoGaPDvLUArFR-17">
          <mxGeometry width="50" height="50" relative="1" as="geometry">
            <mxPoint x="110" y="89" as="sourcePoint" />
            <mxPoint x="270" y="75" as="targetPoint" />
          </mxGeometry>
        </mxCell>
        <mxCell id="tOADqwtDoGaPDvLUArFR-21" value="Supervise les agents logistiques" style="ellipse;whiteSpace=wrap;html=1;" vertex="1" parent="1">
          <mxGeometry x="260" y="210" width="140" height="70" as="geometry" />
        </mxCell>
        <mxCell id="tOADqwtDoGaPDvLUArFR-22" value="" style="endArrow=none;html=1;rounded=0;" edge="1" parent="1" source="jNTNx2NdGYP_HpdYI0lf-2263" target="tOADqwtDoGaPDvLUArFR-21">
          <mxGeometry width="50" height="50" relative="1" as="geometry">
            <mxPoint x="110" y="90" as="sourcePoint" />
            <mxPoint x="450" y="94" as="targetPoint" />
          </mxGeometry>
        </mxCell>
        <mxCell id="tOADqwtDoGaPDvLUArFR-24" value="Définit les rôles et droits d&#39;accès" style="ellipse;whiteSpace=wrap;html=1;" vertex="1" parent="1">
          <mxGeometry x="990" y="70" width="140" height="70" as="geometry" />
        </mxCell>
        <mxCell id="tOADqwtDoGaPDvLUArFR-25" value="" style="endArrow=none;html=1;rounded=0;" edge="1" parent="1" source="tOADqwtDoGaPDvLUArFR-24" target="jNTNx2NdGYP_HpdYI0lf-2266">
          <mxGeometry width="50" height="50" relative="1" as="geometry">
            <mxPoint x="1154" y="-7" as="sourcePoint" />
            <mxPoint x="1390" y="-29" as="targetPoint" />
          </mxGeometry>
        </mxCell>
        <mxCell id="tOADqwtDoGaPDvLUArFR-26" value="Aident les utilisateurs sur le terrain" style="ellipse;whiteSpace=wrap;html=1;" vertex="1" parent="1">
          <mxGeometry x="960" y="450" width="140" height="70" as="geometry" />
        </mxCell>
        <mxCell id="tOADqwtDoGaPDvLUArFR-27" value="" style="endArrow=none;html=1;rounded=0;" edge="1" parent="1" source="tOADqwtDoGaPDvLUArFR-26" target="jNTNx2NdGYP_HpdYI0lf-2267">
          <mxGeometry width="50" height="50" relative="1" as="geometry">
            <mxPoint x="1119" y="443" as="sourcePoint" />
            <mxPoint x="1380" y="431" as="targetPoint" />
          </mxGeometry>
        </mxCell>
        <mxCell id="tOADqwtDoGaPDvLUArFR-30" value="Préparent les commandes" style="ellipse;whiteSpace=wrap;html=1;" vertex="1" parent="1">
          <mxGeometry x="280" y="405" width="140" height="70" as="geometry" />
        </mxCell>
        <mxCell id="tOADqwtDoGaPDvLUArFR-32" value="" style="endArrow=none;html=1;rounded=0;" edge="1" parent="1" source="jNTNx2NdGYP_HpdYI0lf-2264" target="tOADqwtDoGaPDvLUArFR-30">
          <mxGeometry width="50" height="50" relative="1" as="geometry">
            <mxPoint x="110" y="325" as="sourcePoint" />
            <mxPoint x="283" y="270" as="targetPoint" />
          </mxGeometry>
        </mxCell>
        <mxCell id="tOADqwtDoGaPDvLUArFR-33" value="" style="endArrow=none;html=1;rounded=0;" edge="1" parent="1" source="jNTNx2NdGYP_HpdYI0lf-2264" target="jNTNx2NdGYP_HpdYI0lf-2289">
          <mxGeometry width="50" height="50" relative="1" as="geometry">
            <mxPoint x="120" y="335" as="sourcePoint" />
            <mxPoint x="293" y="280" as="targetPoint" />
          </mxGeometry>
        </mxCell>
        <mxCell id="tOADqwtDoGaPDvLUArFR-34" value="&amp;lt;include&amp;gt;" style="endArrow=open;endSize=12;dashed=1;html=1;rounded=0;" edge="1" parent="1" source="jNTNx2NdGYP_HpdYI0lf-2284" target="jNTNx2NdGYP_HpdYI0lf-2273">
          <mxGeometry x="0.0159" width="160" relative="1" as="geometry">
            <mxPoint x="600" y="186" as="sourcePoint" />
            <mxPoint x="351" y="5" as="targetPoint" />
            <mxPoint as="offset" />
          </mxGeometry>
        </mxCell>
        <mxCell id="tOADqwtDoGaPDvLUArFR-35" value="Générer un rapport de stock" style="ellipse;whiteSpace=wrap;html=1;" vertex="1" parent="1">
          <mxGeometry x="650" y="-210" width="140" height="70" as="geometry" />
        </mxCell>
        <mxCell id="tOADqwtDoGaPDvLUArFR-36" value="Extends" style="endArrow=block;endSize=16;endFill=0;html=1;rounded=0;" edge="1" parent="1" source="jNTNx2NdGYP_HpdYI0lf-2272" target="tOADqwtDoGaPDvLUArFR-35">
          <mxGeometry width="160" relative="1" as="geometry">
            <mxPoint x="650" y="70" as="sourcePoint" />
            <mxPoint x="810" y="70" as="targetPoint" />
          </mxGeometry>
        </mxCell>
        <mxCell id="tOADqwtDoGaPDvLUArFR-37" value="Extends" style="endArrow=block;endSize=16;endFill=0;html=1;rounded=0;" edge="1" parent="1" source="jNTNx2NdGYP_HpdYI0lf-2279" target="tOADqwtDoGaPDvLUArFR-38">
          <mxGeometry width="160" relative="1" as="geometry">
            <mxPoint x="450" y="730" as="sourcePoint" />
            <mxPoint x="610" y="730" as="targetPoint" />
          </mxGeometry>
        </mxCell>
        <mxCell id="tOADqwtDoGaPDvLUArFR-38" value="Ajuster les commandes fournisseurs" style="ellipse;whiteSpace=wrap;html=1;" vertex="1" parent="1">
          <mxGeometry x="610" y="870.0000000000005" width="140" height="70" as="geometry" />
        </mxCell>
        <mxCell id="tOADqwtDoGaPDvLUArFR-42" value="&amp;lt;include&amp;gt;" style="endArrow=open;endSize=12;dashed=1;html=1;rounded=0;" edge="1" parent="1" source="tOADqwtDoGaPDvLUArFR-24" target="tOADqwtDoGaPDvLUArFR-8">
          <mxGeometry x="0.0159" width="160" relative="1" as="geometry">
            <mxPoint x="990" y="231" as="sourcePoint" />
            <mxPoint x="903" y="170" as="targetPoint" />
            <mxPoint as="offset" />
          </mxGeometry>
        </mxCell>
        <mxCell id="tOADqwtDoGaPDvLUArFR-43" value="&amp;lt;include&amp;gt;" style="endArrow=open;endSize=12;dashed=1;html=1;rounded=0;" edge="1" parent="1" source="jNTNx2NdGYP_HpdYI0lf-2279" target="jNTNx2NdGYP_HpdYI0lf-2289">
          <mxGeometry x="0.0159" width="160" relative="1" as="geometry">
            <mxPoint x="484" y="796" as="sourcePoint" />
            <mxPoint x="597" y="683" as="targetPoint" />
            <mxPoint as="offset" />
          </mxGeometry>
        </mxCell>
        <mxCell id="tOADqwtDoGaPDvLUArFR-44" value="Extends" style="endArrow=block;endSize=16;endFill=0;html=1;rounded=0;" edge="1" parent="1" source="tOADqwtDoGaPDvLUArFR-21" target="jNTNx2NdGYP_HpdYI0lf-2288">
          <mxGeometry width="160" relative="1" as="geometry">
            <mxPoint x="509" y="400" as="sourcePoint" />
            <mxPoint x="490" y="270" as="targetPoint" />
          </mxGeometry>
        </mxCell>
        <mxCell id="tOADqwtDoGaPDvLUArFR-46" value="Extends" style="endArrow=block;endSize=16;endFill=0;html=1;rounded=0;" edge="1" parent="1" source="tOADqwtDoGaPDvLUArFR-21" target="tOADqwtDoGaPDvLUArFR-30">
          <mxGeometry width="160" relative="1" as="geometry">
            <mxPoint x="487" y="168" as="sourcePoint" />
            <mxPoint x="385" y="313" as="targetPoint" />
          </mxGeometry>
        </mxCell>
        <mxCell id="tOADqwtDoGaPDvLUArFR-48" value="Extends" style="endArrow=block;endSize=16;endFill=0;html=1;rounded=0;" edge="1" parent="1" source="tOADqwtDoGaPDvLUArFR-17" target="jNTNx2NdGYP_HpdYI0lf-2272">
          <mxGeometry width="160" relative="1" as="geometry">
            <mxPoint x="414" y="240" as="sourcePoint" />
            <mxPoint x="531" y="300" as="targetPoint" />
          </mxGeometry>
        </mxCell>
        <mxCell id="tOADqwtDoGaPDvLUArFR-49" value="Extends" style="endArrow=block;endSize=16;endFill=0;html=1;rounded=0;" edge="1" parent="1" source="tOADqwtDoGaPDvLUArFR-17" target="jNTNx2NdGYP_HpdYI0lf-2273">
          <mxGeometry width="160" relative="1" as="geometry">
            <mxPoint x="414" y="-30" as="sourcePoint" />
            <mxPoint x="531" y="30" as="targetPoint" />
          </mxGeometry>
        </mxCell>
        <mxCell id="JGFGGeWtSHR9WW9jkSOe-1" value="Extends" style="endArrow=block;endSize=16;endFill=0;html=1;rounded=0;" edge="1" parent="1" source="jNTNx2NdGYP_HpdYI0lf-2278" target="tOADqwtDoGaPDvLUArFR-15">
          <mxGeometry width="160" relative="1" as="geometry">
            <mxPoint x="480" y="750" as="sourcePoint" />
            <mxPoint x="523" y="940" as="targetPoint" />
          </mxGeometry>
        </mxCell>
      </root>
    </mxGraphModel>
  </diagram>
</mxfile>
